HIERARCHY
ROOT Hips
{
	OFFSET 0.000000 0.000000 0.000000
	CHANNELS 6 Xposition Yposition Zposition Yrotation Xrotation Zrotation
	JOINT Chest
	{
		OFFSET 0.000000 -0.009281 11.569106
		CHANNELS 3 Yrotation Xrotation Zrotation
		JOINT Chest2
		{
			OFFSET -0.000000 0.016865 9.269641
			CHANNELS 3 Yrotation Xrotation Zrotation
			JOINT Chest3
			{
				OFFSET -0.000000 0.000001 8.374491
				CHANNELS 3 Yrotation Xrotation Zrotation
				JOINT Chest4
				{
					OFFSET -0.000000 0.000001 8.374493
					CHANNELS 3 Yrotation Xrotation Zrotation
					JOINT Neck
					{
						OFFSET -0.000000 0.000002 12.152554
						CHANNELS 3 Yrotation Xrotation Zrotation
						JOINT Head
						{
							OFFSET -0.000000 0.040101 7.802319
							CHANNELS 3 Yrotation Xrotation Zrotation
							End Site
							{
								OFFSET -0.000000 0.020947 14.853096
							}
						}
					}
					JOINT RightCollar
					{
						OFFSET 2.894404 0.000001 6.791374
						CHANNELS 3 Yrotation Xrotation Zrotation
						JOINT RightShoulder
						{
							OFFSET 13.574684 0.000001 0.000000
							CHANNELS 3 Yrotation Xrotation Zrotation
							JOINT RightElbow
							{
								OFFSET 23.923903 0.000002 0.000000
								CHANNELS 3 Yrotation Xrotation Zrotation
								JOINT RightWrist
								{
									OFFSET 19.846718 0.012767 0.000000
									CHANNELS 3 Yrotation Xrotation Zrotation
									End Site
									{
										OFFSET 14.973145 0.000001 0.000000
									}
								}
							}
						}
					}
					JOINT LeftCollar
					{
						OFFSET -2.894404 0.000001 6.791374
						CHANNELS 3 Yrotation Xrotation Zrotation
						JOINT LeftShoulder
						{
							OFFSET -13.574684 -0.000001 0.000000
							CHANNELS 3 Yrotation Xrotation Zrotation
							JOINT LeftElbow
							{
								OFFSET -23.923903 -0.000002 0.000000
								CHANNELS 3 Yrotation Xrotation Zrotation
								JOINT LeftWrist
								{
									OFFSET -19.846718 0.012763 0.000000
									CHANNELS 3 Yrotation Xrotation Zrotation
									End Site
									{
										OFFSET -14.973145 -0.000001 0.000000
									}
								}
							}
						}
					}
				}
			}
		}
	}
	JOINT RightHip
	{
		OFFSET 9.469263 0.004643 0.045487
		CHANNELS 3 Yrotation Xrotation Zrotation
		JOINT RightKnee
		{
			OFFSET 0.000000 0.002661 -40.478676
			CHANNELS 3 Yrotation Xrotation Zrotation
			JOINT RightAnkle
			{
				OFFSET 0.000000 0.049106 -35.224068
				CHANNELS 3 Yrotation Xrotation Zrotation
				JOINT RightToe
				{
					OFFSET -0.000001 12.539529 -6.151390
					CHANNELS 3 Yrotation Xrotation Zrotation
					End Site
					{
						OFFSET -0.000001 5.044994 -1.291870
					}
				}
			}
		}
	}
	JOINT LeftHip
	{
		OFFSET -9.469263 0.004641 0.045487
		CHANNELS 3 Yrotation Xrotation Zrotation
		JOINT LeftKnee
		{
			OFFSET 0.000000 0.002661 -40.478676
			CHANNELS 3 Yrotation Xrotation Zrotation
			JOINT LeftAnkle
			{
				OFFSET 0.000000 0.049106 -35.224068
				CHANNELS 3 Yrotation Xrotation Zrotation
				JOINT LeftToe
				{
					OFFSET -0.000001 12.539529 -6.151390
					CHANNELS 3 Yrotation Xrotation Zrotation
					End Site
					{
						OFFSET -0.000001 5.044994 -1.291870
					}
				}
			}
		}
	}
}
MOTION
Frames: 14
Frame Time: 0.016667
9.920648 6.849950 83.095467 -5.070431 -1.511041 -107.907392 -0.684420 -2.936100 1.726564 -0.315277 -1.308659 0.797647 -0.315277 -1.308660 0.797647 -0.234740 -0.981908 0.597535 0.856712 -22.352364 -0.792500 1.328829 -5.322947 -1.195197 10.065208 3.218723 -6.099538 58.106735 35.862632 23.223628 40.910583 26.158443 43.256350 11.801184 26.423560 -8.266494 -9.541424 -3.917188 -6.750860 -61.566109 39.337751 -25.511940 -38.497866 34.177205 -47.280632 -23.958581 55.282950 -23.603361 -0.730005 -5.676258 -1.434371 1.763647 -3.516475 -9.284589 -0.845946 3.642120 2.115809 0.009819 -0.084092 -0.001106 -0.794889 -7.454870 2.678927 0.609185 -1.249066 0.043191 -0.719918 3.610347 0.675390 -0.074728 0.019393 -0.012520 
9.917745 6.830397 83.094666 -5.209129 -1.553651 -108.103241 -0.717769 -2.924281 1.789233 -0.331783 -1.303943 0.827596 -0.331783 -1.303942 0.827599 -0.247062 -0.978409 0.619967 0.656178 -22.506500 0.029484 1.192295 -5.614491 0.232527 10.060819 3.128713 -6.279192 57.541489 35.126632 22.777381 39.461029 25.584881 41.077557 18.110380 22.699562 -10.958347 -9.598298 -4.051894 -6.760499 -62.470351 40.204095 -26.453340 -39.324964 35.064849 -47.174535 -17.170795 60.002174 -25.590325 -0.744713 -5.738739 -1.377589 1.772332 -3.647609 -9.102980 -0.893376 3.697765 2.077567 0.028239 -0.090244 -0.000284 -0.825635 -7.579246 2.669528 0.635802 -1.345704 0.176329 -0.705043 3.692695 0.741288 -0.092227 0.018991 -0.014745 
9.907862 6.811350 83.095070 -5.372354 -1.598735 -108.240678 -0.756584 -2.933292 1.859007 -0.350640 -1.307925 0.860952 -0.350640 -1.307925 0.860952 -0.261126 -0.981441 0.644936 0.488559 -22.644819 0.801817 1.098895 -5.879309 1.578936 10.081360 2.884991 -6.327226 57.155033 34.593655 22.314131 37.839883 24.646772 39.187039 23.415280 19.740850 -12.930621 -9.654542 -4.144715 -6.730813 -63.145973 40.758447 -27.379127 -39.712219 36.176684 -46.755346 -9.080549 63.321065 -24.609534 -0.759375 -5.825454 -1.364278 1.784822 -3.783347 -8.937380 -0.950203 3.755101 2.046826 0.048207 -0.093628 0.000143 -0.854468 -7.702798 2.632488 0.662343 -1.469530 0.276909 -0.680635 3.777322 0.818915 -0.112978 0.019245 -0.016692 
9.888924 6.792985 83.096786 -5.538940 -1.641585 -108.309506 -0.783633 -2.967600 1.919482 -0.363249 -1.322929 0.889725 -0.363249 -1.322929 0.889726 -0.270499 -0.992728 0.666479 0.340621 -22.742686 1.508154 1.021432 -6.070986 2.811468 10.094902 2.521345 -6.293371 56.988237 34.159432 21.954431 36.306263 23.614291 37.899282 27.076270 17.536434 -14.109069 -9.736083 -4.060074 -6.748652 -63.547240 40.959033 -28.146489 -39.331323 37.863505 -45.831129 -5.052170 63.992097 -22.850106 -0.770903 -5.914840 -1.385154 1.805171 -3.922710 -8.794182 -1.019409 3.812192 1.995464 0.069179 -0.093061 0.000631 -0.873806 -7.808008 2.571120 0.686442 -1.608260 0.331574 -0.653297 3.856480 0.895063 -0.131873 0.019466 -0.019225 
9.860975 6.775948 83.099419 -5.686992 -1.681572 -108.318693 -0.786842 -3.009898 1.934710 -0.363692 -1.341119 0.896508 -0.363691 -1.341119 0.896507 -0.270789 -1.006375 0.671551 0.179972 -22.799370 2.167041 0.907711 -6.186964 3.955218 10.145898 2.233064 -6.185369 56.951695 33.826324 21.749506 35.002568 22.764520 37.041280 28.874324 16.201395 -14.795954 -9.753280 -3.858496 -6.578715 -63.776249 40.876339 -28.435985 -38.285939 38.804986 -44.478083 -3.857803 64.116557 -21.658214 -0.773133 -5.977720 -1.399898 1.829434 -4.078241 -8.694773 -1.091116 3.869894 1.930129 0.087624 -0.085467 0.001172 -0.877993 -7.877107 2.527068 0.707077 -1.757351 0.334812 -0.626462 3.934589 0.939966 -0.146262 0.014758 -0.021035 
9.825574 6.761373 83.102310 -5.811276 -1.722300 -108.298291 -0.775052 -3.043193 1.897921 -0.356416 -1.355139 0.878165 -0.356416 -1.355139 0.878167 -0.265353 -1.016869 0.657805 0.014148 -22.825399 2.778727 0.772053 -6.246187 5.012838 10.195008 2.083508 -6.144959 57.104155 33.628494 21.800600 34.003069 22.187644 36.330008 29.479387 15.505890 -15.225168 -9.675403 -3.990671 -6.354379 -63.874543 40.931476 -28.298042 -37.458052 38.608833 -43.371595 -3.409228 64.559208 -20.938481 -0.764895 -6.006714 -1.387901 1.861576 -4.252593 -8.647870 -1.162254 3.928700 1.847978 0.099974 -0.071574 0.002263 -0.867068 -7.920718 2.542541 0.722523 -1.893251 0.288143 -0.599026 4.003983 0.957720 -0.155954 0.004913 -0.021236 
9.784754 6.753903 83.104973 -5.905423 -1.755106 -108.263198 -0.765551 -3.074064 1.842477 -0.350017 -1.368237 0.849576 -0.350017 -1.368237 0.849582 -0.260599 -1.026666 0.636370 -0.124373 -22.811756 3.306545 0.664256 -6.231514 5.927312 10.229584 2.060848 -6.179092 57.385713 33.617809 22.042129 33.394475 21.872938 35.734870 29.460027 14.977210 -15.530042 -9.584804 -4.445319 -6.378110 -63.643245 41.111100 -27.923603 -37.225067 37.991069 -42.953414 -3.074120 64.316026 -20.407804 -0.767479 -5.993608 -1.357119 1.913617 -4.441126 -8.617915 -1.230098 3.987376 1.753863 0.104122 -0.055265 0.002331 -0.851982 -7.938550 2.603216 0.734272 -2.004110 0.201369 -0.569848 4.057137 0.949642 -0.161364 -0.005858 -0.019576 
9.744000 6.751576 83.108078 -5.976562 -1.783477 -108.231205 -0.763004 -3.113609 1.810592 -0.345350 -1.384833 0.830784 -0.345350 -1.384833 0.830784 -0.257118 -1.039097 0.622275 -0.210697 -22.756543 3.714303 0.620300 -6.139105 6.640324 10.241312 2.115343 -6.224176 57.593262 33.728355 22.248860 33.269575 21.762284 35.453552 28.983098 14.580251 -15.686721 -9.525839 -4.678038 -6.341387 -63.174517 40.743554 -27.367188 -36.967952 37.259437 -42.961108 -2.917279 63.634461 -19.998942 -0.770468 -5.968281 -1.330473 1.963040 -4.602990 -8.573346 -1.285422 4.027563 1.658348 0.099638 -0.038510 0.002922 -0.839704 -7.940011 2.676060 0.746428 -2.090522 0.120354 -0.538948 4.097404 0.919237 -0.163235 -0.019338 -0.016757 
9.706211 6.756911 83.112244 -6.027824 -1.784034 -108.194889 -0.781135 -3.150187 1.822086 -0.346207 -1.400303 0.832115 -0.346207 -1.400303 0.832114 -0.257736 -1.050701 0.623261 -0.239206 -22.671729 3.988426 0.646545 -5.990607 7.128818 10.218582 2.147359 -6.249948 57.599873 33.879832 22.261987 33.564274 21.767468 35.611524 28.140291 14.495067 -15.682499 -9.523980 -4.675650 -6.275459 -62.678173 40.156588 -26.807642 -36.607983 36.401503 -43.110740 -3.095871 62.915980 -19.862764 -0.790365 -5.949582 -1.331420 1.993383 -4.701630 -8.525854 -1.322099 4.034725 1.581826 0.091028 -0.020558 0.003627 -0.854628 -7.931322 2.713724 0.764169 -2.144915 0.068075 -0.512398 4.121283 0.910592 -0.160657 -0.030730 -0.015155 
9.675266 6.760320 83.116936 -6.049498 -1.778814 -108.132796 -0.790758 -3.170360 1.859178 -0.348346 -1.407828 0.847323 -0.348346 -1.407828 0.847323 -0.259295 -1.056357 0.634657 -0.227107 -22.577448 4.143331 0.714855 -5.822647 7.413737 10.176093 2.087439 -6.213347 57.422971 34.091028 22.155319 34.030598 21.833530 36.077725 27.276128 14.656324 -15.552884 -9.548269 -4.621724 -6.243760 -62.352551 39.773725 -26.516570 -36.171562 35.390772 -43.095328 -3.333823 62.181783 -20.043945 -0.800864 -5.939269 -1.368357 2.015631 -4.733609 -8.498759 -1.348219 4.029193 1.538429 0.078804 -0.018418 0.005199 -0.863547 -7.904936 2.676850 0.783548 -2.175297 0.050637 -0.498780 4.120981 0.916857 -0.149633 -0.031332 -0.015450 
9.651922 6.764247 83.121933 -6.052271 -1.756482 -108.037747 -0.797740 -3.174751 1.891430 -0.350458 -1.408752 0.861116 -0.350458 -1.408752 0.861116 -0.260846 -1.057061 0.644997 -0.201389 -22.488359 4.217438 0.785946 -5.662011 7.556662 10.108192 2.052315 -6.169855 57.117775 34.278588 22.060606 34.493797 21.954786 36.593995 26.696155 14.819661 -15.284935 -9.571586 -4.455530 -6.187886 -62.057972 39.462139 -26.330750 -35.753435 34.343929 -42.958591 -3.242568 61.339142 -20.373974 -0.805932 -5.946780 -1.419924 2.011929 -4.700366 -8.542321 -1.349840 4.005565 1.535253 0.062738 -0.021692 0.005771 -0.877142 -7.872418 2.595945 0.799052 -2.175954 0.040826 -0.499348 4.098026 0.915126 -0.128218 -0.024312 -0.016141 
9.638702 6.767028 83.126968 -6.032237 -1.726572 -107.912877 -0.809183 -3.173337 1.905112 -0.354496 -1.407135 0.866241 -0.354496 -1.407135 0.866245 -0.263864 -1.055856 0.648836 -0.169861 -22.403997 4.237376 0.852742 -5.508282 7.603432 10.020659 2.159895 -6.190083 56.749672 34.419451 22.020788 34.982702 22.131488 37.036902 26.267413 15.062700 -14.902399 -9.551149 -4.242497 -6.158731 -61.714318 39.121999 -26.140176 -35.379960 33.275715 -42.866110 -2.540610 60.576094 -20.640140 -0.809306 -5.959656 -1.479930 2.006249 -4.628550 -8.653114 -1.338767 3.975076 1.586847 0.045848 -0.025092 0.006102 -0.880295 -7.829765 2.504109 0.798634 -2.152432 0.019485 -0.503983 4.060065 0.891242 -0.100653 -0.015565 -0.015870 
9.633160 6.770957 83.131874 -5.988122 -1.693508 -107.768644 -0.822750 -3.163396 1.893135 -0.358935 -1.402504 0.859517 -0.358935 -1.402504 0.859517 -0.267215 -1.052386 0.643783 -0.134695 -22.319054 4.212393 0.913975 -5.351763 7.570204 9.925499 2.359716 -6.238382 56.360785 34.548709 22.020581 35.570935 22.386886 37.512867 25.664897 15.441208 -14.415329 -9.481376 -4.114945 -6.200569 -61.300319 38.749466 -25.943159 -35.055048 32.188878 -42.859321 -1.579891 60.055538 -21.062283 -0.805028 -5.969862 -1.533181 1.996108 -4.526746 -8.802737 -1.318764 3.936515 1.653101 0.029440 -0.027350 0.005437 -0.873232 -7.779244 2.421657 0.789000 -2.103002 -0.040966 -0.511033 4.007879 0.879495 -0.070994 -0.005387 -0.015091 
9.632582 6.777799 83.135941 -5.924898 -1.655687 -107.608626 -0.833075 -3.152522 1.870457 -0.361942 -1.398143 0.847417 -0.361942 -1.398143 0.847419 -0.269505 -1.049112 0.634704 -0.091031 -22.217104 4.133507 0.976684 -5.161847 7.442476 9.833907 2.546923 -6.269666 56.015300 34.705909 22.101592 36.234283 22.752492 38.156517 24.635637 15.921671 -13.708933 -9.386092 -3.911520 -6.226616 -60.728134 38.130276 -25.585057 -34.863027 31.140619 -42.997000 -0.453219 59.610858 -21.536389 -0.802428 -5.973709 -1.580669 1.990617 -4.407164 -8.960479 -1.293683 3.894283 1.693900 0.012405 -0.029057 0.005584 -0.860980 -7.709429 2.338359 0.768234 -2.053800 -0.124073 -0.514450 3.952994 0.880665 -0.042130 0.004944 -0.015469 
